<svg version="1" xmlns="http://www.w3.org/2000/svg" width="682.667" height="682.667" viewBox="0 0 512.000000 512.000000"><path d="M146.3 146l-109 109.2 107.8 107.9C210.2 428.3 253.5 471 254.6 471c2.1 0 216.4-214.2 216.4-216.2 0-.7-48.5-49.9-107.7-109.3C304 86.2 255.4 37.4 255.4 37.2 255.3 37 206.2 86 146.3 146zm171.5 47.2c43.2 43.3 59.2 59.9 59.2 61.6 0 3.2-120.3 123.6-122.8 122.8-.9-.3-28.9-27.8-62.1-61-49.9-49.9-60.2-60.7-59.7-62.3.8-2.5 118.7-120.4 121.3-121.4 1-.3 2.5-.3 3.3.2.8.4 28.2 27.5 60.8 60.1z"/></svg>