<svg xmlns="http://www.w3.org/2000/svg" width="49.947" height="49.947"><path d="M49.791 22.2a1.626 1.626 0 0 0-1.606-1.23 5.514 5.514 0 0 1-3.775-9.6 1.387 1.387 0 0 0 .152-1.883 24.712 24.712 0 0 0-3.956-4 1.39 1.39 0 0 0-1.9.153 5.756 5.756 0 0 1-6.229 1.4 5.547 5.547 0 0 1-3.373-5.422A1.385 1.385 0 0 0 27.88.166a24.934 24.934 0 0 0-5.618-.014 1.39 1.39 0 0 0-1.237 1.429 5.556 5.556 0 0 1-3.42 5.328A5.772 5.772 0 0 1 11.423 5.5a1.393 1.393 0 0 0-1.885-.159 24.806 24.806 0 0 0-4.041 3.996 1.389 1.389 0 0 0 .149 1.9 5.534 5.534 0 0 1 1.4 6.231 5.774 5.774 0 0 1-5.434 3.376 1.358 1.358 0 0 0-1.445 1.224 25.016 25.016 0 0 0-.011 5.679 1.652 1.652 0 0 0 1.641 1.228A5.477 5.477 0 0 1 6.932 32.4a5.553 5.553 0 0 1-1.4 6.175 1.388 1.388 0 0 0-.152 1.882 24.8 24.8 0 0 0 3.951 4 1.389 1.389 0 0 0 1.9-.151 5.747 5.747 0 0 1 6.226-1.4 5.538 5.538 0 0 1 3.379 5.42 1.387 1.387 0 0 0 1.226 1.459 24.856 24.856 0 0 0 5.619.015 1.39 1.39 0 0 0 1.236-1.43 5.551 5.551 0 0 1 3.417-5.326 5.763 5.763 0 0 1 6.185 1.407 1.4 1.4 0 0 0 1.885.158 24.863 24.863 0 0 0 4.04-3.994 1.387 1.387 0 0 0-.149-1.9 5.534 5.534 0 0 1-1.4-6.23 5.591 5.591 0 0 1 5.114-3.385l.309.008a1.39 1.39 0 0 0 1.462-1.224 25 25 0 0 0 .011-5.684zM25.013 33.356a8.33 8.33 0 1 1 8.33-8.33 8.339 8.339 0 0 1-8.33 8.33z" fill="#fff" fill-rule="evenodd"/></svg>